<svg xmlns="http://www.w3.org/2000/svg" viewBox="0 0 32.8 32">
<path d="M16.4 0C7.34 0 0 7.16 0 16s7.34 16 16.4 16 16.4-7.16 16.4-16S25.46 0 16.4 0zm0 4.7a5.53 5.53 0 0 1 5.56 5.5 5.53 5.53 0 0 1-5.56 5.5 5.53 5.53 0 0 1-5.56-5.5 5.53 5.53 0 0 1 5.56-5.5zm0 3.1c-1.34 0-2.42 1.07-2.42 2.4s1.08 2.4 2.42 2.4a2.41 2.41 0 0 0 2.42-2.4c0-1.33-1.08-2.4-2.42-2.4zm6.42 9.6c.7 0 1.29.4 1.55 1.03.26.64.1 1.33-.42 1.83-.98.95-2.63 1.68-4.2 2.06l3.35 5.2c.34.53.31 1.18-.07 1.66-.5.63-1.5.7-2.1.14l-4.53-4.28-4.53 4.28c-.6.56-1.6.49-2.1-.14a1.44 1.44 0 0 1-.07-1.66l3.35-5.2c-1.57-.38-3.22-1.11-4.2-2.06a1.62 1.62 0 0 1-.42-1.83 1.66 1.66 0 0 1 2.62-.63c1.42 1.16 3.4 1.87 5.35 1.87s3.93-.71 5.35-1.87c.3-.25.67-.4 1.07-.4z"/>
</svg>
