<svg xmlns="http://www.w3.org/2000/svg" viewBox="0 0 32.5 32">
<path d="M16.25 0C7.28 0 0 7.16 0 16s7.28 16 16.25 16S32.5 24.84 32.5 16 25.22 0 16.25 0zm8.5 21.9h-2.6c-1 0-1.3-.8-3.06-2.55-1.54-1.47-2.2-1.66-2.58-1.66-.53 0-.68.15-.68.87v2.32c0 .62-.2 1-1.86 1-2.74 0-5.78-1.64-7.92-4.7-3.22-4.46-4.1-7.8-4.1-8.49 0-.37.14-.72.87-.72h2.6c.65 0 .9.29 1.15.98.28.78 1.28 3.02 2.62 4.94.9 1.31 1.35 1.63 1.72 1.63.44 0 .61-.28.61-1.05v-3.63c-.08-1.5-.86-1.63-.86-2.16 0-.3.25-.6.65-.6h4.1c.55 0 .74.29.74.94v4.9c0 .52.23.7.38.7.36 0 .68-.18 1.36-.86 2.1-2.34 3.6-5.95 3.6-5.95.2-.42.53-.8 1.18-.8h2.6c.78 0 .95.4.78.94-.33 1.5-3.48 5.94-3.48 5.94-.27.44-.38.64 0 1.14.28.37 1.19 1.15 1.8 1.86.9 1.06 1.79 2.24 2.02 2.95.24.7-.12 1.06-.83 1.06z"/>
</svg>
